# xmcd
#
# Track frame offsets:
# 150
# 28317
# 38967
# 52935
# 67655
# 90417
# 103445
# 122675
# 133987
# 143877
# 150335
# 169532
# 182430
#
# Disc length: 2716 seconds
#
# Revision: 0
# Processed by: cddbd v1.5.1PL2 Copyright (c) Steve Scherf et al.
# Submitted via: Audion 3.0.2 (http://www.panic.com/audion/)
#
DISCID=a80a9a0d
DTITLE=Melt - Introducing the rootsless youth
DYEAR=1900
DGENRE=
TTITLE0=All the way down
TTITLE1=Too deep to sink
TTITLE2=In my world
TTITLE3=Home by the sun
TTITLE4=Slapstickfunnyman
TTITLE5=Feel for another
TTITLE6=Tremble me
TTITLE7=Mr. tee
TTITLE8=Mother e
TTITLE9=Theme from rootsless youth
TTITLE10=Kitchen at parties
TTITLE11=?
TTITLE12=??
EXTD=
EXTT0=
EXTT1=
EXTT2=
EXTT3=
EXTT4=
EXTT5=
EXTT6=
EXTT7=
EXTT8=
EXTT9=
EXTT10=
EXTT11=
EXTT12=
PLAYORDER=
